<svg width="127" height="172" viewBox="0 0 127 172" fill="none" xmlns="http://www.w3.org/2000/svg">
<g filter="url(#filter0_ddd_1205_59)">
<rect x="31.5" width="64" height="64" rx="32" fill="#FF5722"/>
<path fill-rule="evenodd" clip-rule="evenodd" d="M60.1665 32.7383C63.8393 32.7383 66.7833 29.7561 66.7833 26.0358C66.7833 22.3155 63.8393 19.3333 60.1665 19.3333C56.4937 19.3333 53.5497 22.3155 53.5497 26.0358C53.5497 29.7561 56.4937 32.7383 60.1665 32.7383ZM60.1665 36.0203C54.7721 36.0203 50.1665 36.8828 50.1665 40.3285C50.1665 43.7731 54.7441 44.6667 60.1665 44.6667C65.5596 44.6667 70.1665 43.8041 70.1665 40.3583C70.1665 36.9125 65.5889 36.0203 60.1665 36.0203ZM74.0304 28.7838H75.6345C76.2948 28.7838 76.8332 29.3297 76.8332 29.9993C76.8332 30.6688 76.2948 31.2148 75.6345 31.2148H74.0304V32.7845C74.0304 33.4541 73.4934 34 72.8318 34C72.1716 34 71.6332 33.4541 71.6332 32.7845V31.2148H70.0318C69.3701 31.2148 68.8332 30.6688 68.8332 29.9993C68.8332 29.3297 69.3701 28.7838 70.0318 28.7838H71.6332V27.2155C71.6332 26.5459 72.1716 26 72.8318 26C73.4934 26 74.0304 26.5459 74.0304 27.2155V28.7838Z" fill="white"/>
</g>
<defs>
<filter id="filter0_ddd_1205_59" x="0.5" y="0" width="126" height="172" filterUnits="userSpaceOnUse" color-interpolation-filters="sRGB">
<feFlood flood-opacity="0" result="BackgroundImageFix"/>
<feColorMatrix in="SourceAlpha" type="matrix" values="0 0 0 0 0 0 0 0 0 0 0 0 0 0 0 0 0 0 127 0" result="hardAlpha"/>
<feOffset dy="19"/>
<feGaussianBlur stdDeviation="9.5"/>
<feColorMatrix type="matrix" values="0 0 0 0 0 0 0 0 0 0 0 0 0 0 0 0 0 0 0.09 0"/>
<feBlend mode="normal" in2="BackgroundImageFix" result="effect1_dropShadow_1205_59"/>
<feColorMatrix in="SourceAlpha" type="matrix" values="0 0 0 0 0 0 0 0 0 0 0 0 0 0 0 0 0 0 127 0" result="hardAlpha"/>
<feOffset dy="43"/>
<feGaussianBlur stdDeviation="13"/>
<feColorMatrix type="matrix" values="0 0 0 0 0 0 0 0 0 0 0 0 0 0 0 0 0 0 0.05 0"/>
<feBlend mode="normal" in2="effect1_dropShadow_1205_59" result="effect2_dropShadow_1205_59"/>
<feColorMatrix in="SourceAlpha" type="matrix" values="0 0 0 0 0 0 0 0 0 0 0 0 0 0 0 0 0 0 127 0" result="hardAlpha"/>
<feOffset dy="77"/>
<feGaussianBlur stdDeviation="15.5"/>
<feColorMatrix type="matrix" values="0 0 0 0 0 0 0 0 0 0 0 0 0 0 0 0 0 0 0.01 0"/>
<feBlend mode="normal" in2="effect2_dropShadow_1205_59" result="effect3_dropShadow_1205_59"/>
<feBlend mode="normal" in="SourceGraphic" in2="effect3_dropShadow_1205_59" result="shape"/>
</filter>
</defs>
</svg>
