<svg width="297" height="56" viewBox="0 0 297 56" fill="none" xmlns="http://www.w3.org/2000/svg">
<rect width="297" height="56" rx="28" fill="white"/>
<path d="M32.8849 23.3182H35.5398L38.3438 30.1591H38.4631L41.267 23.3182H43.9219V33.5H41.8338V26.8729H41.7493L39.1143 33.4503H37.6925L35.0575 26.848H34.973V33.5H32.8849V23.3182ZM49.1358 33.6491C48.3503 33.6491 47.6742 33.4901 47.1074 33.1719C46.544 32.8504 46.1098 32.3963 45.8049 31.8097C45.4999 31.2197 45.3475 30.522 45.3475 29.7166C45.3475 28.9311 45.4999 28.2417 45.8049 27.6484C46.1098 27.0552 46.539 26.5928 47.0925 26.2614C47.6493 25.9299 48.3023 25.7642 49.0513 25.7642C49.5551 25.7642 50.0241 25.8454 50.4583 26.0078C50.8958 26.1669 51.2769 26.4072 51.6017 26.7287C51.9299 27.0502 52.1851 27.4545 52.3674 27.9418C52.5497 28.4257 52.6408 28.9924 52.6408 29.642V30.2237H46.1926V28.9112H50.6472C50.6472 28.6063 50.5809 28.3362 50.4483 28.1009C50.3158 27.8655 50.1318 27.6816 49.8965 27.549C49.6645 27.4131 49.3944 27.3452 49.0861 27.3452C48.7646 27.3452 48.4796 27.4197 48.231 27.5689C47.9857 27.7147 47.7935 27.9119 47.6543 28.1605C47.5151 28.4058 47.4438 28.6792 47.4405 28.9808V30.2287C47.4405 30.6065 47.5101 30.933 47.6493 31.2081C47.7918 31.4832 47.9924 31.6953 48.2509 31.8445C48.5094 31.9936 48.816 32.0682 49.1706 32.0682C49.406 32.0682 49.6214 32.035 49.8169 31.9688C50.0125 31.9025 50.1799 31.803 50.3191 31.6705C50.4583 31.5379 50.5643 31.3755 50.6373 31.1832L52.5961 31.3125C52.4966 31.7831 52.2928 32.1941 51.9846 32.5455C51.6796 32.8935 51.2852 33.1652 50.8013 33.3608C50.3207 33.553 49.7656 33.6491 49.1358 33.6491ZM56.8368 33.6243C56.2568 33.6243 55.7315 33.4751 55.2608 33.1768C54.7935 32.8752 54.4223 32.4328 54.1472 31.8494C53.8754 31.2628 53.7395 30.5436 53.7395 29.6918C53.7395 28.8168 53.8804 28.0893 54.1621 27.5092C54.4438 26.9259 54.8184 26.4901 55.2857 26.2017C55.7563 25.91 56.2717 25.7642 56.8319 25.7642C57.2594 25.7642 57.6157 25.8371 57.9007 25.983C58.1891 26.1255 58.4211 26.3045 58.5968 26.5199C58.7757 26.732 58.9116 26.9408 59.0044 27.1463H59.0691V23.3182H61.182V33.5H59.0939V32.277H59.0044C58.905 32.4891 58.7641 32.6996 58.5819 32.9084C58.4029 33.1139 58.1692 33.2846 57.8809 33.4205C57.5958 33.5563 57.2478 33.6243 56.8368 33.6243ZM57.508 31.9389C57.8494 31.9389 58.1377 31.8461 58.373 31.6605C58.6117 31.4716 58.794 31.2081 58.9199 30.87C59.0492 30.532 59.1138 30.1359 59.1138 29.6818C59.1138 29.2277 59.0508 28.8333 58.9249 28.4986C58.7989 28.1638 58.6167 27.9053 58.378 27.723C58.1394 27.5407 57.8494 27.4496 57.508 27.4496C57.16 27.4496 56.8667 27.544 56.628 27.733C56.3894 27.9219 56.2087 28.1837 56.0861 28.5185C55.9635 28.8532 55.9022 29.241 55.9022 29.6818C55.9022 30.1259 55.9635 30.5187 56.0861 30.8601C56.2121 31.1982 56.3927 31.4633 56.628 31.6555C56.8667 31.8445 57.16 31.9389 57.508 31.9389ZM62.9233 33.5V25.8636H65.0412V33.5H62.9233ZM63.9872 24.8793C63.6723 24.8793 63.4022 24.7749 63.1768 24.5661C62.9548 24.3539 62.8438 24.1004 62.8438 23.8054C62.8438 23.5137 62.9548 23.2635 63.1768 23.0547C63.4022 22.8426 63.6723 22.7365 63.9872 22.7365C64.3021 22.7365 64.5705 22.8426 64.7926 23.0547C65.018 23.2635 65.1307 23.5137 65.1307 23.8054C65.1307 24.1004 65.018 24.3539 64.7926 24.5661C64.5705 24.7749 64.3021 24.8793 63.9872 24.8793ZM68.9153 33.6442C68.4281 33.6442 67.9939 33.5597 67.6127 33.3906C67.2316 33.2183 66.93 32.9647 66.7079 32.63C66.4892 32.2919 66.3798 31.871 66.3798 31.3672C66.3798 30.9429 66.4577 30.5866 66.6135 30.2983C66.7692 30.0099 66.9814 29.7779 67.2498 29.6023C67.5183 29.4266 67.8232 29.294 68.1646 29.2045C68.5093 29.1151 68.8706 29.0521 69.2484 29.0156C69.6925 28.9692 70.0505 28.9261 70.3223 28.8864C70.594 28.8433 70.7913 28.7803 70.9139 28.6974C71.0365 28.6146 71.0978 28.492 71.0978 28.3295V28.2997C71.0978 27.9848 70.9984 27.7412 70.7995 27.5689C70.604 27.3965 70.3256 27.3104 69.9643 27.3104C69.5832 27.3104 69.2799 27.3949 69.0545 27.5639C68.8291 27.7296 68.68 27.9384 68.6071 28.1903L66.6483 28.0312C66.7477 27.5672 66.9432 27.1662 67.2349 26.8281C67.5266 26.4867 67.9028 26.2249 68.3635 26.0426C68.8275 25.857 69.3644 25.7642 69.9743 25.7642C70.3985 25.7642 70.8045 25.8139 71.1923 25.9134C71.5834 26.0128 71.9297 26.1669 72.2314 26.3757C72.5363 26.5845 72.7766 26.853 72.9522 27.1811C73.1279 27.5059 73.2157 27.8954 73.2157 28.3494V33.5H71.2072V32.4411H71.1475C71.0249 32.6797 70.8609 32.8902 70.6554 33.0724C70.4499 33.2514 70.2029 33.3923 69.9146 33.495C69.6262 33.5945 69.2931 33.6442 68.9153 33.6442ZM69.5218 32.1825C69.8334 32.1825 70.1085 32.1212 70.3471 31.9986C70.5858 31.8726 70.773 31.7036 70.9089 31.4915C71.0448 31.2794 71.1127 31.0391 71.1127 30.7706V29.9602C71.0465 30.0033 70.9553 30.0431 70.8393 30.0795C70.7266 30.1127 70.599 30.1442 70.4565 30.174C70.314 30.2005 70.1715 30.2254 70.0289 30.2486C69.8864 30.2685 69.7572 30.2867 69.6412 30.3033C69.3926 30.3397 69.1755 30.3977 68.9899 30.4773C68.8043 30.5568 68.6601 30.6645 68.5574 30.8004C68.4546 30.933 68.4032 31.0987 68.4032 31.2976C68.4032 31.5859 68.5076 31.8063 68.7164 31.9588C68.9286 32.108 69.197 32.1825 69.5218 32.1825ZM78.1388 33.5V23.3182H82.1559C82.9281 23.3182 83.5861 23.4657 84.1296 23.7607C84.6732 24.0523 85.0875 24.4583 85.3725 24.9787C85.6609 25.4957 85.805 26.0923 85.805 26.7685C85.805 27.4446 85.6592 28.0412 85.3675 28.5582C85.0759 29.0753 84.6533 29.478 84.0998 29.7663C83.5496 30.0547 82.8834 30.1989 82.1012 30.1989H79.5408V28.4737H81.7532C82.1675 28.4737 82.5089 28.4025 82.7773 28.2599C83.0491 28.1141 83.2513 27.9136 83.3839 27.6584C83.5198 27.3999 83.5877 27.1032 83.5877 26.7685C83.5877 26.4304 83.5198 26.1354 83.3839 25.8835C83.2513 25.6283 83.0491 25.4311 82.7773 25.2919C82.5056 25.1494 82.1609 25.0781 81.7433 25.0781H80.2915V33.5H78.1388ZM90.5206 33.6491C89.7351 33.6491 89.0589 33.4901 88.4922 33.1719C87.9287 32.8504 87.4946 32.3963 87.1896 31.8097C86.8847 31.2197 86.7322 30.522 86.7322 29.7166C86.7322 28.9311 86.8847 28.2417 87.1896 27.6484C87.4946 27.0552 87.9238 26.5928 88.4773 26.2614C89.0341 25.9299 89.687 25.7642 90.4361 25.7642C90.9399 25.7642 91.4089 25.8454 91.843 26.0078C92.2805 26.1669 92.6617 26.4072 92.9865 26.7287C93.3146 27.0502 93.5698 27.4545 93.7521 27.9418C93.9344 28.4257 94.0256 28.9924 94.0256 29.642V30.2237H87.5774V28.9112H92.032C92.032 28.6063 91.9657 28.3362 91.8331 28.1009C91.7005 27.8655 91.5166 27.6816 91.2812 27.549C91.0492 27.4131 90.7791 27.3452 90.4709 27.3452C90.1494 27.3452 89.8643 27.4197 89.6158 27.5689C89.3705 27.7147 89.1783 27.9119 89.0391 28.1605C88.8999 28.4058 88.8286 28.6792 88.8253 28.9808V30.2287C88.8253 30.6065 88.8949 30.933 89.0341 31.2081C89.1766 31.4832 89.3771 31.6953 89.6357 31.8445C89.8942 31.9936 90.2008 32.0682 90.5554 32.0682C90.7907 32.0682 91.0062 32.035 91.2017 31.9688C91.3973 31.9025 91.5646 31.803 91.7038 31.6705C91.843 31.5379 91.9491 31.3755 92.022 31.1832L93.9808 31.3125C93.8814 31.7831 93.6776 32.1941 93.3693 32.5455C93.0644 32.8935 92.67 33.1652 92.1861 33.3608C91.7055 33.553 91.1503 33.6491 90.5206 33.6491ZM95.4077 33.5V25.8636H97.4261V27.2109H97.5156C97.6747 26.7635 97.9399 26.4105 98.3111 26.152C98.6823 25.8935 99.1264 25.7642 99.6435 25.7642C100.167 25.7642 100.613 25.8951 100.981 26.157C101.349 26.4155 101.594 26.7668 101.717 27.2109H101.796C101.952 26.7734 102.234 26.4238 102.641 26.1619C103.052 25.8968 103.538 25.7642 104.098 25.7642C104.811 25.7642 105.389 25.9912 105.833 26.4453C106.281 26.8961 106.504 27.5357 106.504 28.3643V33.5H104.391V28.782C104.391 28.3577 104.279 28.0395 104.053 27.8274C103.828 27.6153 103.546 27.5092 103.208 27.5092C102.824 27.5092 102.524 27.6319 102.308 27.8771C102.093 28.1191 101.985 28.4389 101.985 28.8366V33.5H99.9318V28.7372C99.9318 28.3627 99.8241 28.0644 99.6087 27.8423C99.3965 27.6203 99.1165 27.5092 98.7685 27.5092C98.5331 27.5092 98.321 27.5689 98.1321 27.6882C97.9465 27.8042 97.799 27.9683 97.6896 28.1804C97.5803 28.3892 97.5256 28.6345 97.5256 28.9162V33.5H95.4077ZM108.217 33.5V23.3182H110.335V27.1463H110.4C110.492 26.9408 110.627 26.732 110.802 26.5199C110.981 26.3045 111.213 26.1255 111.498 25.983C111.787 25.8371 112.145 25.7642 112.572 25.7642C113.129 25.7642 113.643 25.91 114.113 26.2017C114.584 26.4901 114.96 26.9259 115.242 27.5092C115.524 28.0893 115.664 28.8168 115.664 29.6918C115.664 30.5436 115.527 31.2628 115.252 31.8494C114.98 32.4328 114.609 32.8752 114.138 33.1768C113.671 33.4751 113.147 33.6243 112.567 33.6243C112.156 33.6243 111.806 33.5563 111.518 33.4205C111.233 33.2846 110.999 33.1139 110.817 32.9084C110.635 32.6996 110.496 32.4891 110.4 32.277H110.305V33.5H108.217ZM110.29 29.6818C110.29 30.1359 110.353 30.532 110.479 30.87C110.605 31.2081 110.787 31.4716 111.026 31.6605C111.265 31.8461 111.555 31.9389 111.896 31.9389C112.241 31.9389 112.532 31.8445 112.771 31.6555C113.01 31.4633 113.19 31.1982 113.313 30.8601C113.439 30.5187 113.502 30.1259 113.502 29.6818C113.502 29.241 113.44 28.8532 113.318 28.5185C113.195 28.1837 113.015 27.9219 112.776 27.733C112.537 27.544 112.244 27.4496 111.896 27.4496C111.551 27.4496 111.26 27.5407 111.021 27.723C110.786 27.9053 110.605 28.1638 110.479 28.4986C110.353 28.8333 110.29 29.2277 110.29 29.6818ZM120.558 33.6491C119.772 33.6491 119.096 33.4901 118.529 33.1719C117.966 32.8504 117.532 32.3963 117.227 31.8097C116.922 31.2197 116.769 30.522 116.769 29.7166C116.769 28.9311 116.922 28.2417 117.227 27.6484C117.532 27.0552 117.961 26.5928 118.514 26.2614C119.071 25.9299 119.724 25.7642 120.473 25.7642C120.977 25.7642 121.446 25.8454 121.88 26.0078C122.318 26.1669 122.699 26.4072 123.024 26.7287C123.352 27.0502 123.607 27.4545 123.789 27.9418C123.972 28.4257 124.063 28.9924 124.063 29.642V30.2237H117.615V28.9112H122.069C122.069 28.6063 122.003 28.3362 121.87 28.1009C121.738 27.8655 121.554 27.6816 121.318 27.549C121.086 27.4131 120.816 27.3452 120.508 27.3452C120.186 27.3452 119.901 27.4197 119.653 27.5689C119.408 27.7147 119.215 27.9119 119.076 28.1605C118.937 28.4058 118.866 28.6792 118.862 28.9808V30.2287C118.862 30.6065 118.932 30.933 119.071 31.2081C119.214 31.4832 119.414 31.6953 119.673 31.8445C119.931 31.9936 120.238 32.0682 120.593 32.0682C120.828 32.0682 121.043 32.035 121.239 31.9688C121.434 31.9025 121.602 31.803 121.741 31.6705C121.88 31.5379 121.986 31.3755 122.059 31.1832L124.018 31.3125C123.919 31.7831 123.715 32.1941 123.406 32.5455C123.102 32.8935 122.707 33.1652 122.223 33.3608C121.743 33.553 121.187 33.6491 120.558 33.6491ZM125.445 25.8636H127.563V33.8778C127.563 34.4678 127.447 34.9451 127.215 35.3097C126.983 35.6742 126.65 35.9411 126.215 36.1101C125.785 36.2791 125.269 36.3636 124.669 36.3636C124.596 36.3636 124.527 36.362 124.46 36.3587C124.391 36.3587 124.318 36.357 124.242 36.3537V34.6982C124.298 34.7015 124.348 34.7031 124.391 34.7031C124.431 34.7064 124.474 34.7081 124.52 34.7081C124.861 34.7081 125.1 34.6352 125.236 34.4893C125.375 34.3468 125.445 34.1314 125.445 33.843V25.8636ZM126.499 24.8793C126.187 24.8793 125.919 24.7749 125.693 24.5661C125.468 24.3539 125.355 24.1004 125.355 23.8054C125.355 23.5137 125.468 23.2635 125.693 23.0547C125.919 22.8426 126.187 22.7365 126.499 22.7365C126.817 22.7365 127.087 22.8426 127.309 23.0547C127.535 23.2635 127.647 23.5137 127.647 23.8054C127.647 24.1004 127.535 24.3539 127.309 24.5661C127.087 24.7749 126.817 24.8793 126.499 24.8793ZM131.437 33.6442C130.95 33.6442 130.515 33.5597 130.134 33.3906C129.753 33.2183 129.451 32.9647 129.229 32.63C129.011 32.2919 128.901 31.871 128.901 31.3672C128.901 30.9429 128.979 30.5866 129.135 30.2983C129.291 30.0099 129.503 29.7779 129.771 29.6023C130.04 29.4266 130.345 29.294 130.686 29.2045C131.031 29.1151 131.392 29.0521 131.77 29.0156C132.214 28.9692 132.572 28.9261 132.844 28.8864C133.116 28.8433 133.313 28.7803 133.435 28.6974C133.558 28.6146 133.619 28.492 133.619 28.3295V28.2997C133.619 27.9848 133.52 27.7412 133.321 27.5689C133.125 27.3965 132.847 27.3104 132.486 27.3104C132.105 27.3104 131.801 27.3949 131.576 27.5639C131.351 27.7296 131.201 27.9384 131.129 28.1903L129.17 28.0312C129.269 27.5672 129.465 27.1662 129.756 26.8281C130.048 26.4867 130.424 26.2249 130.885 26.0426C131.349 25.857 131.886 25.7642 132.496 25.7642C132.92 25.7642 133.326 25.8139 133.714 25.9134C134.105 26.0128 134.451 26.1669 134.753 26.3757C135.058 26.5845 135.298 26.853 135.474 27.1811C135.649 27.5059 135.737 27.8954 135.737 28.3494V33.5H133.729V32.4411H133.669C133.546 32.6797 133.382 32.8902 133.177 33.0724C132.971 33.2514 132.724 33.3923 132.436 33.495C132.148 33.5945 131.815 33.6442 131.437 33.6442ZM132.043 32.1825C132.355 32.1825 132.63 32.1212 132.869 31.9986C133.107 31.8726 133.295 31.7036 133.43 31.4915C133.566 31.2794 133.634 31.0391 133.634 30.7706V29.9602C133.568 30.0033 133.477 30.0431 133.361 30.0795C133.248 30.1127 133.121 30.1442 132.978 30.174C132.835 30.2005 132.693 30.2254 132.55 30.2486C132.408 30.2685 132.279 30.2867 132.163 30.3033C131.914 30.3397 131.697 30.3977 131.511 30.4773C131.326 30.5568 131.182 30.6645 131.079 30.8004C130.976 30.933 130.925 31.0987 130.925 31.2976C130.925 31.5859 131.029 31.8063 131.238 31.9588C131.45 32.108 131.719 32.1825 132.043 32.1825ZM137.38 33.5V25.8636H139.434V27.196H139.513C139.652 26.7221 139.886 26.3641 140.214 26.1222C140.542 25.8769 140.92 25.7543 141.348 25.7543C141.454 25.7543 141.568 25.7609 141.691 25.7741C141.813 25.7874 141.921 25.8056 142.014 25.8288V27.7081C141.914 27.6783 141.777 27.6518 141.601 27.6286C141.426 27.6054 141.265 27.5938 141.119 27.5938C140.807 27.5938 140.529 27.6617 140.284 27.7976C140.042 27.9302 139.85 28.1158 139.707 28.3544C139.568 28.593 139.498 28.8681 139.498 29.1797V33.5H137.38ZM145.068 33.6442C144.58 33.6442 144.146 33.5597 143.765 33.3906C143.384 33.2183 143.082 32.9647 142.86 32.63C142.642 32.2919 142.532 31.871 142.532 31.3672C142.532 30.9429 142.61 30.5866 142.766 30.2983C142.922 30.0099 143.134 29.7779 143.402 29.6023C143.671 29.4266 143.976 29.294 144.317 29.2045C144.662 29.1151 145.023 29.0521 145.401 29.0156C145.845 28.9692 146.203 28.9261 146.475 28.8864C146.746 28.8433 146.944 28.7803 147.066 28.6974C147.189 28.6146 147.25 28.492 147.25 28.3295V28.2997C147.25 27.9848 147.151 27.7412 146.952 27.5689C146.756 27.3965 146.478 27.3104 146.117 27.3104C145.735 27.3104 145.432 27.3949 145.207 27.5639C144.981 27.7296 144.832 27.9384 144.759 28.1903L142.801 28.0312C142.9 27.5672 143.096 27.1662 143.387 26.8281C143.679 26.4867 144.055 26.2249 144.516 26.0426C144.98 25.857 145.517 25.7642 146.127 25.7642C146.551 25.7642 146.957 25.8139 147.345 25.9134C147.736 26.0128 148.082 26.1669 148.384 26.3757C148.689 26.5845 148.929 26.853 149.105 27.1811C149.28 27.5059 149.368 27.8954 149.368 28.3494V33.5H147.36V32.4411H147.3C147.177 32.6797 147.013 32.8902 146.808 33.0724C146.602 33.2514 146.355 33.3923 146.067 33.495C145.779 33.5945 145.445 33.6442 145.068 33.6442ZM145.674 32.1825C145.986 32.1825 146.261 32.1212 146.499 31.9986C146.738 31.8726 146.925 31.7036 147.061 31.4915C147.197 31.2794 147.265 31.0391 147.265 30.7706V29.9602C147.199 30.0033 147.108 30.0431 146.992 30.0795C146.879 30.1127 146.751 30.1442 146.609 30.174C146.466 30.2005 146.324 30.2254 146.181 30.2486C146.039 30.2685 145.91 30.2867 145.794 30.3033C145.545 30.3397 145.328 30.3977 145.142 30.4773C144.957 30.5568 144.812 30.6645 144.71 30.8004C144.607 30.933 144.556 31.0987 144.556 31.2976C144.556 31.5859 144.66 31.8063 144.869 31.9588C145.081 32.108 145.349 32.1825 145.674 32.1825ZM153.129 29.0852V33.5H151.011V25.8636H153.03V27.2109H153.119C153.288 26.7668 153.572 26.4155 153.969 26.157C154.367 25.8951 154.849 25.7642 155.416 25.7642C155.946 25.7642 156.409 25.8802 156.803 26.1122C157.198 26.3442 157.504 26.6757 157.723 27.1065C157.942 27.5341 158.051 28.0445 158.051 28.6378V33.5H155.933V29.0156C155.936 28.5483 155.817 28.1837 155.575 27.9219C155.333 27.6567 155 27.5241 154.576 27.5241C154.291 27.5241 154.039 27.5855 153.82 27.7081C153.605 27.8307 153.436 28.0097 153.313 28.245C153.194 28.477 153.132 28.7571 153.129 29.0852ZM165.153 23.3182V33.5H163V23.3182H165.153ZM169.002 29.0852V33.5H166.884V25.8636H168.903V27.2109H168.992C169.161 26.7668 169.445 26.4155 169.842 26.157C170.24 25.8951 170.722 25.7642 171.289 25.7642C171.819 25.7642 172.282 25.8802 172.676 26.1122C173.071 26.3442 173.377 26.6757 173.596 27.1065C173.815 27.5341 173.924 28.0445 173.924 28.6378V33.5H171.806V29.0156C171.809 28.5483 171.69 28.1837 171.448 27.9219C171.206 27.6567 170.873 27.5241 170.449 27.5241C170.164 27.5241 169.912 27.5855 169.693 27.7081C169.478 27.8307 169.309 28.0097 169.186 28.245C169.067 28.477 169.005 28.7571 169.002 29.0852ZM179.655 25.8636V27.4545H175.056V25.8636H179.655ZM176.1 24.0341H178.218V31.1534C178.218 31.349 178.248 31.5014 178.308 31.6108C178.367 31.7169 178.45 31.7914 178.556 31.8345C178.666 31.8776 178.792 31.8991 178.934 31.8991C179.034 31.8991 179.133 31.8909 179.232 31.8743C179.332 31.8544 179.408 31.8395 179.461 31.8295L179.794 33.4055C179.688 33.4387 179.539 33.4768 179.347 33.5199C179.155 33.5663 178.921 33.5945 178.646 33.6044C178.135 33.6243 177.688 33.5563 177.303 33.4006C176.922 33.2448 176.626 33.0028 176.414 32.6747C176.201 32.3466 176.097 31.9323 176.1 31.4318V24.0341ZM184.433 33.6491C183.647 33.6491 182.971 33.4901 182.404 33.1719C181.841 32.8504 181.407 32.3963 181.102 31.8097C180.797 31.2197 180.644 30.522 180.644 29.7166C180.644 28.9311 180.797 28.2417 181.102 27.6484C181.407 27.0552 181.836 26.5928 182.389 26.2614C182.946 25.9299 183.599 25.7642 184.348 25.7642C184.852 25.7642 185.321 25.8454 185.755 26.0078C186.193 26.1669 186.574 26.4072 186.899 26.7287C187.227 27.0502 187.482 27.4545 187.664 27.9418C187.847 28.4257 187.938 28.9924 187.938 29.642V30.2237H181.49V28.9112H185.944C185.944 28.6063 185.878 28.3362 185.745 28.1009C185.613 27.8655 185.429 27.6816 185.193 27.549C184.961 27.4131 184.691 27.3452 184.383 27.3452C184.061 27.3452 183.776 27.4197 183.528 27.5689C183.283 27.7147 183.09 27.9119 182.951 28.1605C182.812 28.4058 182.741 28.6792 182.737 28.9808V30.2287C182.737 30.6065 182.807 30.933 182.946 31.2081C183.089 31.4832 183.289 31.6953 183.548 31.8445C183.806 31.9936 184.113 32.0682 184.468 32.0682C184.703 32.0682 184.918 32.035 185.114 31.9688C185.309 31.9025 185.477 31.803 185.616 31.6705C185.755 31.5379 185.861 31.3755 185.934 31.1832L187.893 31.3125C187.794 31.7831 187.59 32.1941 187.281 32.5455C186.977 32.8935 186.582 33.1652 186.098 33.3608C185.618 33.553 185.062 33.6491 184.433 33.6491ZM189.32 33.5V25.8636H191.373V27.196H191.453C191.592 26.7221 191.825 26.3641 192.154 26.1222C192.482 25.8769 192.86 25.7543 193.287 25.7543C193.393 25.7543 193.508 25.7609 193.63 25.7741C193.753 25.7874 193.86 25.8056 193.953 25.8288V27.7081C193.854 27.6783 193.716 27.6518 193.541 27.6286C193.365 27.6054 193.204 27.5938 193.058 27.5938C192.747 27.5938 192.468 27.6617 192.223 27.7976C191.981 27.9302 191.789 28.1158 191.646 28.3544C191.507 28.593 191.438 28.8681 191.438 29.1797V33.5H189.32ZM197.007 33.6442C196.52 33.6442 196.086 33.5597 195.705 33.3906C195.323 33.2183 195.022 32.9647 194.8 32.63C194.581 32.2919 194.472 31.871 194.472 31.3672C194.472 30.9429 194.549 30.5866 194.705 30.2983C194.861 30.0099 195.073 29.7779 195.342 29.6023C195.61 29.4266 195.915 29.294 196.256 29.2045C196.601 29.1151 196.962 29.0521 197.34 29.0156C197.784 28.9692 198.142 28.9261 198.414 28.8864C198.686 28.8433 198.883 28.7803 199.006 28.6974C199.128 28.6146 199.19 28.492 199.19 28.3295V28.2997C199.19 27.9848 199.09 27.7412 198.891 27.5689C198.696 27.3965 198.417 27.3104 198.056 27.3104C197.675 27.3104 197.372 27.3949 197.146 27.5639C196.921 27.7296 196.772 27.9384 196.699 28.1903L194.74 28.0312C194.839 27.5672 195.035 27.1662 195.327 26.8281C195.618 26.4867 195.995 26.2249 196.455 26.0426C196.919 25.857 197.456 25.7642 198.066 25.7642C198.49 25.7642 198.896 25.8139 199.284 25.9134C199.675 26.0128 200.022 26.1669 200.323 26.3757C200.628 26.5845 200.868 26.853 201.044 27.1811C201.22 27.5059 201.308 27.8954 201.308 28.3494V33.5H199.299V32.4411H199.239C199.117 32.6797 198.953 32.8902 198.747 33.0724C198.542 33.2514 198.295 33.3923 198.006 33.495C197.718 33.5945 197.385 33.6442 197.007 33.6442ZM197.614 32.1825C197.925 32.1825 198.2 32.1212 198.439 31.9986C198.678 31.8726 198.865 31.7036 199.001 31.4915C199.137 31.2794 199.205 31.0391 199.205 30.7706V29.9602C199.138 30.0033 199.047 30.0431 198.931 30.0795C198.818 30.1127 198.691 30.1442 198.548 30.174C198.406 30.2005 198.263 30.2254 198.121 30.2486C197.978 30.2685 197.849 30.2867 197.733 30.3033C197.484 30.3397 197.267 30.3977 197.082 30.4773C196.896 30.5568 196.752 30.6645 196.649 30.8004C196.546 30.933 196.495 31.0987 196.495 31.2976C196.495 31.5859 196.599 31.8063 196.808 31.9588C197.02 32.108 197.289 32.1825 197.614 32.1825ZM204.87 31.3026L204.875 28.7621H205.183L207.629 25.8636H210.06L206.774 29.7017H206.272L204.87 31.3026ZM202.951 33.5V23.3182H205.069V33.5H202.951ZM207.723 33.5L205.476 30.174L206.888 28.6776L210.204 33.5H207.723ZM215.161 25.8636V27.4545H210.562V25.8636H215.161ZM211.606 24.0341H213.724V31.1534C213.724 31.349 213.754 31.5014 213.814 31.6108C213.873 31.7169 213.956 31.7914 214.062 31.8345C214.172 31.8776 214.297 31.8991 214.44 31.8991C214.539 31.8991 214.639 31.8909 214.738 31.8743C214.838 31.8544 214.914 31.8395 214.967 31.8295L215.3 33.4055C215.194 33.4387 215.045 33.4768 214.853 33.5199C214.66 33.5663 214.427 33.5945 214.152 33.6044C213.641 33.6243 213.194 33.5563 212.809 33.4006C212.428 33.2448 212.132 33.0028 211.919 32.6747C211.707 32.3466 211.603 31.9323 211.606 31.4318V24.0341ZM216.54 33.5V25.8636H218.658V33.5H216.54ZM217.604 24.8793C217.29 24.8793 217.019 24.7749 216.794 24.5661C216.572 24.3539 216.461 24.1004 216.461 23.8054C216.461 23.5137 216.572 23.2635 216.794 23.0547C217.019 22.8426 217.29 22.7365 217.604 22.7365C217.919 22.7365 218.188 22.8426 218.41 23.0547C218.635 23.2635 218.748 23.5137 218.748 23.8054C218.748 24.1004 218.635 24.3539 218.41 24.5661C218.188 24.7749 217.919 24.8793 217.604 24.8793ZM224.461 25.8636V27.4545H219.748V25.8636H224.461ZM220.827 33.5V25.3118C220.827 24.7583 220.935 24.2992 221.15 23.9347C221.369 23.5701 221.667 23.2966 222.045 23.1143C222.423 22.9321 222.852 22.8409 223.333 22.8409C223.658 22.8409 223.954 22.8658 224.223 22.9155C224.495 22.9652 224.697 23.0099 224.829 23.0497L224.452 24.6406C224.369 24.6141 224.266 24.5893 224.143 24.5661C224.024 24.5429 223.901 24.5312 223.775 24.5312C223.464 24.5312 223.247 24.6042 223.124 24.75C223.001 24.8925 222.94 25.093 222.94 25.3516V33.5H220.827Z" fill="#F85E9F"/>
<path fill-rule="evenodd" clip-rule="evenodd" d="M251.704 19.519C251.034 19.519 250.464 19.9848 250.304 20.6126H255.686C255.526 19.9848 254.956 19.519 254.286 19.519H251.704ZM257.207 20.6126H259.188C261.289 20.6126 263 22.3443 263 24.4708C263 24.4708 262.94 25.3711 262.92 26.6248C262.918 26.724 262.87 26.8212 262.791 26.88C262.31 27.2354 261.869 27.5291 261.829 27.5493C260.169 28.6632 258.239 29.447 256.183 29.8369C256.049 29.8632 255.917 29.7934 255.848 29.6739C255.272 28.6754 254.196 28.0253 252.995 28.0253C251.802 28.0253 250.716 28.6683 250.123 29.6678C250.054 29.7853 249.923 29.8531 249.79 29.8278C247.751 29.4369 245.821 28.6541 244.171 27.5594L243.21 26.8911C243.13 26.8405 243.08 26.7493 243.08 26.6481C243.05 26.1316 243 24.4708 243 24.4708C243 22.3443 244.711 20.6126 246.812 20.6126H248.783C248.973 19.1443 250.204 18 251.704 18H254.286C255.786 18 257.017 19.1443 257.207 20.6126ZM262.66 28.8152L262.62 28.8355C260.599 30.1924 258.168 31.0937 255.616 31.4684C255.256 31.519 254.896 31.2861 254.796 30.9216C254.576 30.0912 253.865 29.5443 253.015 29.5443H253.005H252.985C252.135 29.5443 251.424 30.0912 251.204 30.9216C251.104 31.2861 250.744 31.519 250.384 31.4684C247.832 31.0937 245.401 30.1924 243.38 28.8355C243.37 28.8254 243.27 28.7646 243.19 28.8152C243.1 28.8659 243.1 28.9874 243.1 28.9874L243.17 34.1519C243.17 36.2785 244.871 38 246.972 38H259.018C261.119 38 262.82 36.2785 262.82 34.1519L262.9 28.9874C262.9 28.9874 262.9 28.8659 262.81 28.8152C262.76 28.7849 262.7 28.795 262.66 28.8152ZM253.745 33.0583C253.745 33.4836 253.415 33.8177 252.995 33.8177C252.585 33.8177 252.245 33.4836 252.245 33.0583V31.7519C252.245 31.3367 252.585 30.9924 252.995 30.9924C253.415 30.9924 253.745 31.3367 253.745 31.7519V33.0583Z" fill="#F85E9F"/>
</svg>
