<svg width="28" height="25" viewBox="0 0 28 25" fill="none" xmlns="http://www.w3.org/2000/svg">
<path fill-rule="evenodd" clip-rule="evenodd" d="M20.5859 0.683594C22.3739 0.683594 24.0939 1.39026 25.3593 2.65826C26.6259 3.92359 27.3339 5.63026 27.3339 7.41693V17.9503C27.3339 21.6703 24.3073 24.6836 20.5859 24.6836H7.4139C3.69257 24.6836 0.667236 21.6703 0.667236 17.9503V7.41693C0.667236 3.69693 3.67924 0.683594 7.4139 0.683594H20.5859ZM22.7073 9.40359L22.8139 9.29693C23.1326 8.91026 23.1326 8.35026 22.7993 7.96359C22.6139 7.76493 22.3592 7.64359 22.0939 7.61693C21.8139 7.60226 21.5473 7.69693 21.3459 7.88359L15.3339 12.6836C14.5606 13.3249 13.4526 13.3249 12.6672 12.6836L6.66724 7.88359C6.25257 7.57693 5.67924 7.61693 5.3339 7.97693C4.9739 8.33693 4.9339 8.91026 5.23924 9.31026L5.4139 9.48359L11.4806 14.2169C12.2273 14.8036 13.1326 15.1236 14.0806 15.1236C15.0259 15.1236 15.9472 14.8036 16.6926 14.2169L22.7073 9.40359Z" fill="#191825" fill-opacity="0.75"/>
</svg>
