<svg width="1440" height="1354" viewBox="0 0 1440 1354" fill="none" xmlns="http://www.w3.org/2000/svg">
<g clip-path="url(#clip0_1206_225)">
<path d="M-715.599 1246.95C-719.544 1223.68 -706.123 881.905 -581.783 598.924C-470.169 345.267 -210.617 200.698 93.1607 383.01C418.647 578.404 699.4 598.053 925.781 541.055C1149.2 484.546 1297.77 314.275 1364.5 205.699C1509.32 -28.9323 1723.24 116.199 1648.1 424.907C1612.65 568.51 1519.18 608.66 1357.21 623.56C1187.91 639.135 937.774 606.074 590.835 673.45C256.244 738.682 -120.281 895.346 -332.007 1094.76C-557.334 1307.16 -682.565 1450 -715.599 1246.95Z" fill="url(#paint0_linear_1206_225)"/>
</g>
<defs>
<linearGradient id="paint0_linear_1206_225" x1="1540" y1="1062.32" x2="-664.333" y2="379.04" gradientUnits="userSpaceOnUse">
<stop stop-color="#5D50C6"/>
<stop offset="1" stop-color="#F85E9F"/>
</linearGradient>
<clipPath id="clip0_1206_225">
<rect width="2506.2" height="958.638" fill="white" transform="translate(-854 407.874) rotate(-9.36634)"/>
</clipPath>
</defs>
</svg>
