<svg width="498" height="313" viewBox="0 0 498 313" fill="none" xmlns="http://www.w3.org/2000/svg">
<g filter="url(#filter0_dddd_1205_209)">
<rect x="83" y="19" width="331.9" height="72" rx="36" fill="white"/>
<path fill-rule="evenodd" clip-rule="evenodd" d="M133.999 50.2433L135.199 51.4433C136.149 52.3767 136.666 53.6433 136.666 54.9767C136.683 56.31 136.166 57.5783 135.232 58.5267C135.221 58.5388 135.21 58.5497 135.199 58.5603C135.193 58.5657 135.188 58.5712 135.182 58.5767L133.999 59.76C133.532 60.2267 133.265 60.86 133.265 61.5283V63.2433C133.265 66.01 131.014 68.2617 128.246 68.2617H126.529C125.862 68.2617 125.229 68.5267 124.762 68.9933L123.561 70.1933C122.578 71.1783 121.294 71.66 120.01 71.66C118.726 71.66 117.443 71.1783 116.459 70.2117L115.242 68.9933C114.775 68.5267 114.141 68.2617 113.474 68.2617H111.757C108.99 68.2617 106.739 66.01 106.739 63.2433V61.5283C106.739 60.86 106.472 60.2267 106.005 59.7433L104.805 58.56C102.854 56.6117 102.837 53.4267 104.788 51.4616L106.005 50.2433C106.472 49.7766 106.739 49.1433 106.739 48.46V46.76C106.739 43.9933 108.99 41.745 111.757 41.745H113.474C114.141 41.745 114.775 41.4766 115.242 41.01L116.442 39.81C118.393 37.845 121.577 37.845 123.545 39.795L124.762 41.01C125.229 41.4766 125.862 41.745 126.529 41.745H128.246C131.014 41.745 133.265 43.9933 133.265 46.76V48.4783C133.265 49.1433 133.532 49.7766 133.999 50.2433ZM115.709 60.7433C116.109 60.7433 116.476 60.5933 116.742 60.31L125.312 51.745C125.879 51.1783 125.879 50.2433 125.312 49.6766C124.745 49.1116 123.828 49.1116 123.261 49.6766L114.692 58.2433C114.125 58.81 114.125 59.7433 114.692 60.31C114.958 60.5933 115.325 60.7433 115.709 60.7433ZM122.828 59.2767C122.828 60.0933 123.478 60.7433 124.295 60.7433C125.095 60.7433 125.746 60.0933 125.746 59.2767C125.746 58.4783 125.095 57.8267 124.295 57.8267C123.478 57.8267 122.828 58.4783 122.828 59.2767ZM115.725 49.26C116.526 49.26 117.176 49.91 117.176 50.71C117.176 51.5283 116.526 52.1767 115.725 52.1767C114.925 52.1767 114.258 51.5283 114.258 50.71C114.258 49.91 114.925 49.26 115.725 49.26Z" fill="#FF5722"/>
<path d="M157.454 46.2727H161.815L166.422 57.5114H166.618L171.224 46.2727H175.586V63H172.156V52.1126H172.017L167.688 62.9183H165.352L161.023 52.0717H160.884V63H157.454V46.2727ZM184.152 63.245C182.861 63.245 181.75 62.9837 180.819 62.4609C179.894 61.9328 179.18 61.1868 178.679 60.223C178.178 59.2538 177.928 58.1076 177.928 56.7844C177.928 55.494 178.178 54.3614 178.679 53.3867C179.18 52.4121 179.886 51.6525 180.795 51.108C181.71 50.5634 182.782 50.2912 184.013 50.2912C184.841 50.2912 185.611 50.4246 186.324 50.6914C187.043 50.9528 187.669 51.3475 188.203 51.8757C188.742 52.4039 189.161 53.0682 189.461 53.8686C189.76 54.6636 189.91 55.5947 189.91 56.6619V57.6175H179.316V55.4613H186.635C186.635 54.9603 186.526 54.5166 186.308 54.13C186.09 53.7434 185.788 53.4412 185.401 53.2234C185.02 53.0001 184.576 52.8885 184.07 52.8885C183.542 52.8885 183.074 53.011 182.665 53.256C182.262 53.4956 181.946 53.8196 181.718 54.228C181.489 54.6309 181.372 55.0801 181.367 55.5756V57.6257C181.367 58.2464 181.481 58.7828 181.71 59.2347C181.944 59.6867 182.273 60.0352 182.698 60.2802C183.123 60.5252 183.626 60.6477 184.209 60.6477C184.595 60.6477 184.949 60.5933 185.271 60.4844C185.592 60.3755 185.867 60.2121 186.096 59.9943C186.324 59.7765 186.499 59.5097 186.618 59.1939L189.836 59.4062C189.673 60.1795 189.338 60.8546 188.832 61.4318C188.331 62.0036 187.683 62.45 186.888 62.7713C186.098 63.0871 185.186 63.245 184.152 63.245ZM196.803 63.2042C195.85 63.2042 194.987 62.9592 194.214 62.4691C193.446 61.9736 192.837 61.2467 192.385 60.2884C191.938 59.3246 191.715 58.143 191.715 56.7436C191.715 55.3061 191.946 54.1109 192.409 53.158C192.872 52.1997 193.487 51.4837 194.255 51.0099C195.028 50.5308 195.875 50.2912 196.795 50.2912C197.498 50.2912 198.083 50.411 198.551 50.6506C199.025 50.8847 199.406 51.1787 199.695 51.5327C199.989 51.8812 200.212 52.2242 200.364 52.5618H200.471V46.2727H203.942V63H200.511V60.9908H200.364C200.201 61.3393 199.97 61.685 199.67 62.0281C199.376 62.3656 198.992 62.6461 198.519 62.8693C198.05 63.0926 197.479 63.2042 196.803 63.2042ZM197.906 60.4354C198.467 60.4354 198.941 60.2829 199.327 59.978C199.719 59.6676 200.019 59.2347 200.226 58.6793C200.438 58.1239 200.544 57.4732 200.544 56.7273C200.544 55.9813 200.441 55.3333 200.234 54.7834C200.027 54.2334 199.727 53.8087 199.335 53.5092C198.943 53.2098 198.467 53.06 197.906 53.06C197.334 53.06 196.852 53.2152 196.46 53.5256C196.068 53.8359 195.772 54.2661 195.57 54.8161C195.369 55.366 195.268 56.0031 195.268 56.7273C195.268 57.4569 195.369 58.1022 195.57 58.663C195.777 59.2184 196.074 59.654 196.46 59.9698C196.852 60.2802 197.334 60.4354 197.906 60.4354ZM206.803 63V50.4545H210.282V63H206.803ZM208.55 48.8374C208.033 48.8374 207.589 48.6658 207.219 48.3228C206.854 47.9743 206.672 47.5578 206.672 47.0732C206.672 46.594 206.854 46.1829 207.219 45.8398C207.589 45.4914 208.033 45.3171 208.55 45.3171C209.068 45.3171 209.509 45.4914 209.874 45.8398C210.244 46.1829 210.429 46.594 210.429 47.0732C210.429 47.5578 210.244 47.9743 209.874 48.3228C209.509 48.6658 209.068 48.8374 208.55 48.8374ZM216.647 63.2369C215.846 63.2369 215.133 63.098 214.507 62.8203C213.88 62.5372 213.385 62.1206 213.02 61.5707C212.661 61.0153 212.481 60.3237 212.481 59.4961C212.481 58.7991 212.609 58.2138 212.865 57.7401C213.121 57.2663 213.469 56.8852 213.91 56.5966C214.351 56.308 214.852 56.0902 215.413 55.9432C215.98 55.7962 216.573 55.6927 217.194 55.6328C217.923 55.5566 218.512 55.4858 218.958 55.4205C219.405 55.3497 219.728 55.2462 219.93 55.1101C220.131 54.974 220.232 54.7725 220.232 54.5057V54.4567C220.232 53.9394 220.069 53.5392 219.742 53.256C219.421 52.9729 218.963 52.8313 218.37 52.8313C217.744 52.8313 217.246 52.9702 216.875 53.2479C216.505 53.5201 216.26 53.8632 216.14 54.277L212.922 54.0156C213.085 53.2533 213.407 52.5945 213.886 52.0391C214.365 51.4782 214.983 51.0481 215.74 50.7486C216.502 50.4437 217.384 50.2912 218.386 50.2912C219.083 50.2912 219.75 50.3729 220.387 50.5362C221.03 50.6996 221.599 50.9528 222.094 51.2958C222.595 51.6388 222.99 52.0799 223.279 52.619C223.567 53.1526 223.712 53.7924 223.712 54.5384V63H220.412V61.2603H220.314C220.112 61.6523 219.843 61.9981 219.505 62.2976C219.168 62.5916 218.762 62.823 218.288 62.9918C217.815 63.1552 217.267 63.2369 216.647 63.2369ZM217.643 60.8356C218.155 60.8356 218.607 60.7348 218.999 60.5334C219.391 60.3265 219.699 60.0488 219.922 59.7003C220.145 59.3518 220.257 58.957 220.257 58.516V57.1847C220.148 57.2554 219.998 57.3208 219.807 57.3807C219.622 57.4351 219.413 57.4869 219.179 57.5359C218.944 57.5794 218.71 57.6203 218.476 57.6584C218.242 57.6911 218.03 57.721 217.839 57.7482C217.431 57.8081 217.074 57.9034 216.769 58.0341C216.464 58.1648 216.227 58.3417 216.059 58.565C215.89 58.7828 215.805 59.055 215.805 59.3817C215.805 59.8555 215.977 60.2176 216.32 60.468C216.668 60.7131 217.109 60.8356 217.643 60.8356ZM231.8 63V46.2727H238.399C239.668 46.2727 240.749 46.515 241.642 46.9996C242.535 47.4788 243.215 48.1458 243.683 49.0007C244.157 49.8501 244.394 50.8303 244.394 51.9411C244.394 53.0518 244.154 54.032 243.675 54.8814C243.196 55.7308 242.502 56.3924 241.593 56.8661C240.689 57.3398 239.594 57.5767 238.309 57.5767H234.103V54.7425H237.737C238.418 54.7425 238.979 54.6255 239.42 54.3913C239.866 54.1518 240.199 53.8223 240.416 53.4031C240.64 52.9783 240.751 52.491 240.751 51.9411C240.751 51.3857 240.64 50.901 240.416 50.4872C240.199 50.0679 239.866 49.744 239.42 49.5153C238.973 49.2811 238.407 49.1641 237.721 49.1641H235.336V63H231.8ZM252.141 63.245C250.85 63.245 249.74 62.9837 248.809 62.4609C247.883 61.9328 247.17 61.1868 246.669 60.223C246.168 59.2538 245.917 58.1076 245.917 56.7844C245.917 55.494 246.168 54.3614 246.669 53.3867C247.17 52.4121 247.875 51.6525 248.784 51.108C249.699 50.5634 250.772 50.2912 252.002 50.2912C252.83 50.2912 253.6 50.4246 254.314 50.6914C255.032 50.9528 255.658 51.3475 256.192 51.8757C256.731 52.4039 257.15 53.0682 257.45 53.8686C257.749 54.6636 257.899 55.5947 257.899 56.6619V57.6175H247.306V55.4613H254.624C254.624 54.9603 254.515 54.5166 254.297 54.13C254.079 53.7434 253.777 53.4412 253.391 53.2234C253.009 53.0001 252.566 52.8885 252.059 52.8885C251.531 52.8885 251.063 53.011 250.654 53.256C250.252 53.4956 249.936 53.8196 249.707 54.228C249.478 54.6309 249.361 55.0801 249.356 55.5756V57.6257C249.356 58.2464 249.47 58.7828 249.699 59.2347C249.933 59.6867 250.262 60.0352 250.687 60.2802C251.112 60.5252 251.616 60.6477 252.198 60.6477C252.585 60.6477 252.939 60.5933 253.26 60.4844C253.581 60.3755 253.856 60.2121 254.085 59.9943C254.314 59.7765 254.488 59.5097 254.608 59.1939L257.826 59.4062C257.662 60.1795 257.327 60.8546 256.821 61.4318C256.32 62.0036 255.672 62.45 254.877 62.7713C254.088 63.0871 253.176 63.245 252.141 63.245ZM260.17 63V50.4545H263.486V52.668H263.633C263.894 51.9329 264.33 51.353 264.94 50.9283C265.549 50.5036 266.279 50.2912 267.129 50.2912C267.989 50.2912 268.721 50.5063 269.326 50.9364C269.93 51.3611 270.333 51.9383 270.534 52.668H270.665C270.921 51.9492 271.384 51.3748 272.054 50.9446C272.729 50.509 273.527 50.2912 274.447 50.2912C275.617 50.2912 276.568 50.6642 277.297 51.4102C278.032 52.1507 278.4 53.2016 278.4 54.5629V63H274.929V55.2489C274.929 54.552 274.743 54.0292 274.373 53.6808C274.003 53.3323 273.54 53.158 272.985 53.158C272.353 53.158 271.86 53.3595 271.506 53.7624C271.152 54.1599 270.975 54.6854 270.975 55.3388V63H267.602V55.1754C267.602 54.5601 267.425 54.0701 267.071 53.7053C266.723 53.3404 266.263 53.158 265.691 53.158C265.304 53.158 264.956 53.256 264.646 53.4521C264.341 53.6426 264.098 53.9122 263.919 54.2607C263.739 54.6037 263.649 55.0066 263.649 55.4695V63H260.17ZM281.214 63V46.2727H284.693V52.5618H284.799C284.952 52.2242 285.172 51.8812 285.461 51.5327C285.755 51.1787 286.136 50.8847 286.604 50.6506C287.078 50.411 287.666 50.2912 288.368 50.2912C289.283 50.2912 290.127 50.5308 290.9 51.0099C291.674 51.4837 292.292 52.1997 292.754 53.158C293.217 54.1109 293.449 55.3061 293.449 56.7436C293.449 58.143 293.223 59.3246 292.771 60.2884C292.324 61.2467 291.714 61.9736 290.941 62.4691C290.173 62.9592 289.313 63.2042 288.36 63.2042C287.685 63.2042 287.111 63.0926 286.637 62.8693C286.169 62.6461 285.785 62.3656 285.485 62.0281C285.186 61.685 284.957 61.3393 284.799 60.9908H284.644V63H281.214ZM284.619 56.7273C284.619 57.4732 284.723 58.1239 284.93 58.6793C285.137 59.2347 285.436 59.6676 285.828 59.978C286.22 60.2829 286.697 60.4354 287.258 60.4354C287.824 60.4354 288.303 60.2802 288.695 59.9698C289.087 59.654 289.384 59.2184 289.585 58.663C289.792 58.1022 289.896 57.4569 289.896 56.7273C289.896 56.0031 289.795 55.366 289.594 54.8161C289.392 54.2661 289.095 53.8359 288.703 53.5256C288.311 53.2152 287.829 53.06 287.258 53.06C286.691 53.06 286.212 53.2098 285.82 53.5092C285.434 53.8087 285.137 54.2334 284.93 54.7834C284.723 55.3333 284.619 55.9813 284.619 56.7273ZM301.488 63.245C300.197 63.245 299.086 62.9837 298.155 62.4609C297.23 61.9328 296.516 61.1868 296.015 60.223C295.514 59.2538 295.264 58.1076 295.264 56.7844C295.264 55.494 295.514 54.3614 296.015 53.3867C296.516 52.4121 297.221 51.6525 298.131 51.108C299.046 50.5634 300.118 50.2912 301.349 50.2912C302.176 50.2912 302.947 50.4246 303.66 50.6914C304.379 50.9528 305.005 51.3475 305.539 51.8757C306.078 52.4039 306.497 53.0682 306.797 53.8686C307.096 54.6636 307.246 55.5947 307.246 56.6619V57.6175H296.652V55.4613H303.971C303.971 54.9603 303.862 54.5166 303.644 54.13C303.426 53.7434 303.124 53.4412 302.737 53.2234C302.356 53.0001 301.912 52.8885 301.406 52.8885C300.878 52.8885 300.41 53.011 300.001 53.256C299.598 53.4956 299.282 53.8196 299.054 54.228C298.825 54.6309 298.708 55.0801 298.703 55.5756V57.6257C298.703 58.2464 298.817 58.7828 299.046 59.2347C299.28 59.6867 299.609 60.0352 300.034 60.2802C300.459 60.5252 300.962 60.6477 301.545 60.6477C301.931 60.6477 302.285 60.5933 302.607 60.4844C302.928 60.3755 303.203 60.2121 303.432 59.9943C303.66 59.7765 303.834 59.5097 303.954 59.1939L307.172 59.4062C307.009 60.1795 306.674 60.8546 306.168 61.4318C305.667 62.0036 305.019 62.45 304.224 62.7713C303.434 63.0871 302.522 63.245 301.488 63.245ZM312.996 46.2727V63H309.516V46.2727H312.996ZM319.36 63.2369C318.56 63.2369 317.847 63.098 317.221 62.8203C316.594 62.5372 316.099 62.1206 315.734 61.5707C315.375 61.0153 315.195 60.3237 315.195 59.4961C315.195 58.7991 315.323 58.2138 315.579 57.7401C315.835 57.2663 316.183 56.8852 316.624 56.5966C317.065 56.308 317.566 56.0902 318.127 55.9432C318.693 55.7962 319.287 55.6927 319.908 55.6328C320.637 55.5566 321.225 55.4858 321.672 55.4205C322.118 55.3497 322.442 55.2462 322.644 55.1101C322.845 54.974 322.946 54.7725 322.946 54.5057V54.4567C322.946 53.9394 322.783 53.5392 322.456 53.256C322.135 52.9729 321.677 52.8313 321.084 52.8313C320.458 52.8313 319.959 52.9702 319.589 53.2479C319.219 53.5201 318.974 53.8632 318.854 54.277L315.636 54.0156C315.799 53.2533 316.121 52.5945 316.6 52.0391C317.079 51.4782 317.697 51.0481 318.454 50.7486C319.216 50.4437 320.098 50.2912 321.1 50.2912C321.797 50.2912 322.464 50.3729 323.101 50.5362C323.744 50.6996 324.313 50.9528 324.808 51.2958C325.309 51.6388 325.704 52.0799 325.993 52.619C326.281 53.1526 326.425 53.7924 326.425 54.5384V63H323.126V61.2603H323.028C322.826 61.6523 322.557 61.9981 322.219 62.2976C321.882 62.5916 321.476 62.823 321.002 62.9918C320.528 63.1552 319.981 63.2369 319.36 63.2369ZM320.357 60.8356C320.869 60.8356 321.321 60.7348 321.713 60.5334C322.105 60.3265 322.412 60.0488 322.636 59.7003C322.859 59.3518 322.971 58.957 322.971 58.516V57.1847C322.862 57.2554 322.712 57.3208 322.521 57.3807C322.336 57.4351 322.127 57.4869 321.892 57.5359C321.658 57.5794 321.424 57.6203 321.19 57.6584C320.956 57.6911 320.743 57.721 320.553 57.7482C320.145 57.8081 319.788 57.9034 319.483 58.0341C319.178 58.1648 318.941 58.3417 318.772 58.565C318.604 58.7828 318.519 59.055 318.519 59.3817C318.519 59.8555 318.691 60.2176 319.034 60.468C319.382 60.7131 319.823 60.8356 320.357 60.8356ZM329.125 50.4545H332.604V63.6207C332.604 64.59 332.414 65.3741 332.032 65.973C331.651 66.572 331.104 67.0103 330.391 67.288C329.683 67.5657 328.836 67.7045 327.851 67.7045C327.731 67.7045 327.617 67.7018 327.508 67.6964C327.393 67.6964 327.273 67.6937 327.148 67.6882V64.9684C327.241 64.9738 327.323 64.9766 327.393 64.9766C327.459 64.982 327.529 64.9847 327.606 64.9847C328.166 64.9847 328.559 64.8649 328.782 64.6254C329.01 64.3912 329.125 64.0373 329.125 63.5636V50.4545ZM330.856 48.8374C330.345 48.8374 329.903 48.6658 329.533 48.3228C329.163 47.9743 328.978 47.5578 328.978 47.0732C328.978 46.594 329.163 46.1829 329.533 45.8398C329.903 45.4914 330.345 45.3171 330.856 45.3171C331.379 45.3171 331.823 45.4914 332.188 45.8398C332.558 46.1829 332.743 46.594 332.743 47.0732C332.743 47.5578 332.558 47.9743 332.188 48.3228C331.823 48.6658 331.379 48.8374 330.856 48.8374ZM338.969 63.2369C338.168 63.2369 337.455 63.098 336.829 62.8203C336.203 62.5372 335.707 62.1206 335.342 61.5707C334.983 61.0153 334.803 60.3237 334.803 59.4961C334.803 58.7991 334.931 58.2138 335.187 57.7401C335.443 57.2663 335.792 56.8852 336.233 56.5966C336.674 56.308 337.175 56.0902 337.736 55.9432C338.302 55.7962 338.895 55.6927 339.516 55.6328C340.246 55.5566 340.834 55.4858 341.28 55.4205C341.727 55.3497 342.051 55.2462 342.252 55.1101C342.454 54.974 342.554 54.7725 342.554 54.5057V54.4567C342.554 53.9394 342.391 53.5392 342.064 53.256C341.743 52.9729 341.286 52.8313 340.692 52.8313C340.066 52.8313 339.568 52.9702 339.198 53.2479C338.827 53.5201 338.582 53.8632 338.462 54.277L335.244 54.0156C335.408 53.2533 335.729 52.5945 336.208 52.0391C336.687 51.4782 337.305 51.0481 338.062 50.7486C338.825 50.4437 339.707 50.2912 340.709 50.2912C341.406 50.2912 342.073 50.3729 342.71 50.5362C343.352 50.6996 343.921 50.9528 344.417 51.2958C344.918 51.6388 345.312 52.0799 345.601 52.619C345.89 53.1526 346.034 53.7924 346.034 54.5384V63H342.734V61.2603H342.636C342.435 61.6523 342.165 61.9981 341.828 62.2976C341.49 62.5916 341.084 62.823 340.611 62.9918C340.137 63.1552 339.59 63.2369 338.969 63.2369ZM339.965 60.8356C340.477 60.8356 340.929 60.7348 341.321 60.5334C341.713 60.3265 342.021 60.0488 342.244 59.7003C342.467 59.3518 342.579 58.957 342.579 58.516V57.1847C342.47 57.2554 342.32 57.3208 342.13 57.3807C341.945 57.4351 341.735 57.4869 341.501 57.5359C341.267 57.5794 341.033 57.6203 340.798 57.6584C340.564 57.6911 340.352 57.721 340.161 57.7482C339.753 57.8081 339.396 57.9034 339.091 58.0341C338.786 58.1648 338.55 58.3417 338.381 58.565C338.212 58.7828 338.128 59.055 338.128 59.3817C338.128 59.8555 338.299 60.2176 338.642 60.468C338.991 60.7131 339.432 60.8356 339.965 60.8356ZM348.733 63V50.4545H352.106V52.6435H352.237C352.466 51.8648 352.85 51.2768 353.389 50.8793C353.928 50.4763 354.549 50.2749 355.251 50.2749C355.425 50.2749 355.613 50.2857 355.815 50.3075C356.016 50.3293 356.193 50.3593 356.345 50.3974V53.4847C356.182 53.4357 355.956 53.3922 355.668 53.354C355.379 53.3159 355.115 53.2969 354.875 53.2969C354.363 53.2969 353.906 53.4085 353.503 53.6317C353.106 53.8495 352.79 54.1545 352.556 54.5465C352.327 54.9386 352.213 55.3905 352.213 55.9023V63H348.733ZM361.362 63.2369C360.562 63.2369 359.849 63.098 359.222 62.8203C358.596 62.5372 358.101 62.1206 357.736 61.5707C357.377 61.0153 357.197 60.3237 357.197 59.4961C357.197 58.7991 357.325 58.2138 357.581 57.7401C357.837 57.2663 358.185 56.8852 358.626 56.5966C359.067 56.308 359.568 56.0902 360.129 55.9432C360.695 55.7962 361.289 55.6927 361.91 55.6328C362.639 55.5566 363.227 55.4858 363.674 55.4205C364.12 55.3497 364.444 55.2462 364.646 55.1101C364.847 54.974 364.948 54.7725 364.948 54.5057V54.4567C364.948 53.9394 364.785 53.5392 364.458 53.256C364.137 52.9729 363.679 52.8313 363.086 52.8313C362.46 52.8313 361.961 52.9702 361.591 53.2479C361.221 53.5201 360.976 53.8632 360.856 54.277L357.638 54.0156C357.801 53.2533 358.123 52.5945 358.602 52.0391C359.081 51.4782 359.699 51.0481 360.456 50.7486C361.218 50.4437 362.1 50.2912 363.102 50.2912C363.799 50.2912 364.466 50.3729 365.103 50.5362C365.746 50.6996 366.315 50.9528 366.81 51.2958C367.311 51.6388 367.706 52.0799 367.994 52.619C368.283 53.1526 368.427 53.7924 368.427 54.5384V63H365.128V61.2603H365.03C364.828 61.6523 364.559 61.9981 364.221 62.2976C363.883 62.5916 363.478 62.823 363.004 62.9918C362.53 63.1552 361.983 63.2369 361.362 63.2369ZM362.359 60.8356C362.871 60.8356 363.323 60.7348 363.715 60.5334C364.107 60.3265 364.414 60.0488 364.638 59.7003C364.861 59.3518 364.972 58.957 364.972 58.516V57.1847C364.864 57.2554 364.714 57.3208 364.523 57.3807C364.338 57.4351 364.128 57.4869 363.894 57.5359C363.66 57.5794 363.426 57.6203 363.192 57.6584C362.958 57.6911 362.745 57.721 362.555 57.7482C362.146 57.8081 361.79 57.9034 361.485 58.0341C361.18 58.1648 360.943 58.3417 360.774 58.565C360.606 58.7828 360.521 59.055 360.521 59.3817C360.521 59.8555 360.693 60.2176 361.036 60.468C361.384 60.7131 361.825 60.8356 362.359 60.8356ZM374.606 55.7472V63H371.127V50.4545H374.443V52.668H374.59C374.868 51.9383 375.333 51.3611 375.987 50.9364C376.64 50.5063 377.432 50.2912 378.363 50.2912C379.234 50.2912 379.994 50.4818 380.642 50.8629C381.29 51.2441 381.794 51.7886 382.153 52.4964C382.512 53.1989 382.692 54.0374 382.692 55.0121V63H379.213V55.6328C379.218 54.8651 379.022 54.2661 378.625 53.8359C378.227 53.4003 377.68 53.1825 376.983 53.1825C376.515 53.1825 376.101 53.2833 375.741 53.4847C375.388 53.6862 375.11 53.9802 374.908 54.3668C374.712 54.748 374.612 55.2081 374.606 55.7472Z" fill="#191825"/>
</g>
<defs>
<filter id="filter0_dddd_1205_209" x="0" y="0" width="497.9" height="313" filterUnits="userSpaceOnUse" color-interpolation-filters="sRGB">
<feFlood flood-opacity="0" result="BackgroundImageFix"/>
<feColorMatrix in="SourceAlpha" type="matrix" values="0 0 0 0 0 0 0 0 0 0 0 0 0 0 0 0 0 0 127 0" result="hardAlpha"/>
<feOffset/>
<feColorMatrix type="matrix" values="0 0 0 0 0 0 0 0 0 0 0 0 0 0 0 0 0 0 0.03 0"/>
<feBlend mode="normal" in2="BackgroundImageFix" result="effect1_dropShadow_1205_209"/>
<feColorMatrix in="SourceAlpha" type="matrix" values="0 0 0 0 0 0 0 0 0 0 0 0 0 0 0 0 0 0 127 0" result="hardAlpha"/>
<feOffset dy="15"/>
<feGaussianBlur stdDeviation="17"/>
<feColorMatrix type="matrix" values="0 0 0 0 0 0 0 0 0 0 0 0 0 0 0 0 0 0 0.03 0"/>
<feBlend mode="normal" in2="effect1_dropShadow_1205_209" result="effect2_dropShadow_1205_209"/>
<feColorMatrix in="SourceAlpha" type="matrix" values="0 0 0 0 0 0 0 0 0 0 0 0 0 0 0 0 0 0 127 0" result="hardAlpha"/>
<feOffset dy="62"/>
<feGaussianBlur stdDeviation="31"/>
<feColorMatrix type="matrix" values="0 0 0 0 0 0 0 0 0 0 0 0 0 0 0 0 0 0 0.02 0"/>
<feBlend mode="normal" in2="effect2_dropShadow_1205_209" result="effect3_dropShadow_1205_209"/>
<feColorMatrix in="SourceAlpha" type="matrix" values="0 0 0 0 0 0 0 0 0 0 0 0 0 0 0 0 0 0 127 0" result="hardAlpha"/>
<feOffset dy="139"/>
<feGaussianBlur stdDeviation="41.5"/>
<feColorMatrix type="matrix" values="0 0 0 0 0 0 0 0 0 0 0 0 0 0 0 0 0 0 0.01 0"/>
<feBlend mode="normal" in2="effect3_dropShadow_1205_209" result="effect4_dropShadow_1205_209"/>
<feBlend mode="normal" in="SourceGraphic" in2="effect4_dropShadow_1205_209" result="shape"/>
</filter>
</defs>
</svg>
